# xmcd
# 
# Track frame offsets:
#     150
#     13277
#     28982
#     44012
#     58497
#     73597
#     88505
#     102945
#     117575
#     133462
#     150177
#     172302
#     189970
#     209812
# 
# Disc length: 3091
# 
# Revision: 3
# Processed by: cddbd v1.5.2PL0 Copyright (c) Steve Scherf et al.
# Submitted via: fre:ac v1.0.31
# 
DISCID=dd0c110e
DTITLE=美空ひばり - 特選集
DYEAR=1989
DGENRE=Folk
TTITLE0=悲しい口笛
TTITLE1=越後獅子の唄
TTITLE2=あの丘を超えて
TTITLE3=リンゴ追分
TTITLE4=津軽のふるさと
TTITLE5=ひばりのマドロスさん
TTITLE6=港町十三番地
TTITLE7=浜っ子マドロス
TTITLE8=哀愁波止場
TTITLE9=無法松の一生（度胸千両入り）
TTITLE10=悲しい酒
TTITLE11=人生一路
TTITLE12=みだれ髪
TTITLE13=川の流れのように
EXTD=YEAR: 1989
EXTT0=
EXTT1=
EXTT2=
EXTT3=
EXTT4=
EXTT5=
EXTT6=
EXTT7=
EXTT8=
EXTT9=
EXTT10=
EXTT11=
EXTT12=
EXTT13=
PLAYORDER=
